<mxfile host="app.diagrams.net" agent="Mozilla/5.0 (Windows NT 10.0; Win64; x64) AppleWebKit/537.36 (KHTML, like Gecko) Chrome/134.0.0.0 Safari/537.36" version="26.1.3">
  <diagram name="Trang-1" id="3ciX0kMBH-TsXMd-ime-">
    <mxGraphModel dx="1290" dy="522" grid="1" gridSize="10" guides="1" tooltips="1" connect="1" arrows="1" fold="1" page="1" pageScale="1" pageWidth="827" pageHeight="1169" math="0" shadow="0">
      <root>
        <mxCell id="0" />
        <mxCell id="1" parent="0" />
        <mxCell id="7AuuZOZhR7wqeMhlJ5Nb-11" style="edgeStyle=orthogonalEdgeStyle;rounded=0;orthogonalLoop=1;jettySize=auto;html=1;entryX=0.5;entryY=0;entryDx=0;entryDy=0;" edge="1" parent="1" source="7AuuZOZhR7wqeMhlJ5Nb-1" target="7AuuZOZhR7wqeMhlJ5Nb-5">
          <mxGeometry relative="1" as="geometry" />
        </mxCell>
        <mxCell id="7AuuZOZhR7wqeMhlJ5Nb-15" value="D1" style="edgeLabel;html=1;align=center;verticalAlign=middle;resizable=0;points=[];" vertex="1" connectable="0" parent="7AuuZOZhR7wqeMhlJ5Nb-11">
          <mxGeometry x="-0.0933" y="1" relative="1" as="geometry">
            <mxPoint as="offset" />
          </mxGeometry>
        </mxCell>
        <mxCell id="7AuuZOZhR7wqeMhlJ5Nb-1" value="Khách Hàng" style="rounded=0;whiteSpace=wrap;html=1;" vertex="1" parent="1">
          <mxGeometry x="60" y="40" width="120" height="60" as="geometry" />
        </mxCell>
        <mxCell id="7AuuZOZhR7wqeMhlJ5Nb-8" value="" style="edgeStyle=orthogonalEdgeStyle;rounded=0;orthogonalLoop=1;jettySize=auto;html=1;" edge="1" parent="1" source="7AuuZOZhR7wqeMhlJ5Nb-5" target="7AuuZOZhR7wqeMhlJ5Nb-7">
          <mxGeometry relative="1" as="geometry" />
        </mxCell>
        <mxCell id="7AuuZOZhR7wqeMhlJ5Nb-20" value="D5" style="edgeLabel;html=1;align=center;verticalAlign=middle;resizable=0;points=[];" vertex="1" connectable="0" parent="7AuuZOZhR7wqeMhlJ5Nb-8">
          <mxGeometry x="-0.205" y="2" relative="1" as="geometry">
            <mxPoint as="offset" />
          </mxGeometry>
        </mxCell>
        <mxCell id="7AuuZOZhR7wqeMhlJ5Nb-13" style="edgeStyle=orthogonalEdgeStyle;rounded=0;orthogonalLoop=1;jettySize=auto;html=1;entryX=0.358;entryY=0.073;entryDx=0;entryDy=0;exitX=0.263;exitY=0.98;exitDx=0;exitDy=0;exitPerimeter=0;entryPerimeter=0;" edge="1" parent="1" source="7AuuZOZhR7wqeMhlJ5Nb-5" target="7AuuZOZhR7wqeMhlJ5Nb-10">
          <mxGeometry relative="1" as="geometry" />
        </mxCell>
        <mxCell id="7AuuZOZhR7wqeMhlJ5Nb-18" value="D3" style="edgeLabel;html=1;align=center;verticalAlign=middle;resizable=0;points=[];" vertex="1" connectable="0" parent="7AuuZOZhR7wqeMhlJ5Nb-13">
          <mxGeometry x="-0.1208" y="1" relative="1" as="geometry">
            <mxPoint as="offset" />
          </mxGeometry>
        </mxCell>
        <mxCell id="7AuuZOZhR7wqeMhlJ5Nb-5" value="Đăng xuất KH" style="ellipse;whiteSpace=wrap;html=1;" vertex="1" parent="1">
          <mxGeometry x="240" y="170" width="120" height="80" as="geometry" />
        </mxCell>
        <mxCell id="7AuuZOZhR7wqeMhlJ5Nb-7" value="Thiết bị xuất" style="whiteSpace=wrap;html=1;" vertex="1" parent="1">
          <mxGeometry x="470" y="180" width="120" height="60" as="geometry" />
        </mxCell>
        <mxCell id="7AuuZOZhR7wqeMhlJ5Nb-12" style="edgeStyle=orthogonalEdgeStyle;rounded=0;orthogonalLoop=1;jettySize=auto;html=1;entryX=0;entryY=0.5;entryDx=0;entryDy=0;" edge="1" parent="1" source="7AuuZOZhR7wqeMhlJ5Nb-9" target="7AuuZOZhR7wqeMhlJ5Nb-5">
          <mxGeometry relative="1" as="geometry" />
        </mxCell>
        <mxCell id="7AuuZOZhR7wqeMhlJ5Nb-17" value="D2" style="edgeLabel;html=1;align=center;verticalAlign=middle;resizable=0;points=[];" vertex="1" connectable="0" parent="7AuuZOZhR7wqeMhlJ5Nb-12">
          <mxGeometry x="-0.1378" y="2" relative="1" as="geometry">
            <mxPoint as="offset" />
          </mxGeometry>
        </mxCell>
        <mxCell id="7AuuZOZhR7wqeMhlJ5Nb-9" value="Thiết bị nhập" style="rounded=0;whiteSpace=wrap;html=1;" vertex="1" parent="1">
          <mxGeometry x="60" y="180" width="120" height="60" as="geometry" />
        </mxCell>
        <mxCell id="7AuuZOZhR7wqeMhlJ5Nb-14" style="edgeStyle=orthogonalEdgeStyle;rounded=0;orthogonalLoop=1;jettySize=auto;html=1;" edge="1" parent="1" source="7AuuZOZhR7wqeMhlJ5Nb-10">
          <mxGeometry relative="1" as="geometry">
            <mxPoint x="320" y="250" as="targetPoint" />
            <Array as="points">
              <mxPoint x="320" y="250" />
            </Array>
          </mxGeometry>
        </mxCell>
        <mxCell id="7AuuZOZhR7wqeMhlJ5Nb-19" value="D4" style="edgeLabel;html=1;align=center;verticalAlign=middle;resizable=0;points=[];" vertex="1" connectable="0" parent="7AuuZOZhR7wqeMhlJ5Nb-14">
          <mxGeometry x="0.0629" y="-1" relative="1" as="geometry">
            <mxPoint as="offset" />
          </mxGeometry>
        </mxCell>
        <mxCell id="7AuuZOZhR7wqeMhlJ5Nb-10" value="Database" style="shape=partialRectangle;whiteSpace=wrap;html=1;left=0;right=0;fillColor=none;" vertex="1" parent="1">
          <mxGeometry x="200" y="340" width="200" height="60" as="geometry" />
        </mxCell>
      </root>
    </mxGraphModel>
  </diagram>
</mxfile>
